            <svg xmlns="http://www.w3.org/2000/svg" viewBox="0 0 50 50">
                <path fill="none" stroke="#00bfff" d="M25 25q10 0 10 10-10 0-10 10-10 0-10-10 10 0 10-10 10 0 10-10-10 0-10-10-10 0-10 10 10 0 10 10"/>
                <radialGradient id="a" cx="50%" cy="50%" r="50%" fx="50%" fy="50%">
                    <stop offset="0%" style="stop-color:deepskyblue;stop-opacity:1"/>
                    <stop offset="100%" style="stop-color:midnightblue;stop-opacity:1"/>
                </radialGradient>
                <circle cx="250" cy="250" r="200" fill="url(#a)"/>
                <path stroke="#fff" d="M250 250V50m0 200v200m0-200H50m200 0h200"/>
                <circle cx="350" cy="150" r="2" fill="#fff"/>
                <circle cx="150" cy="350" r="2" fill="#fff"/>
                <circle cx="400" cy="400" r="2" fill="#fff"/>
                <circle cx="100" cy="100" r="2" fill="#fff"/>
                <circle cx="12" cy="12" r=".5" fill="#fff"/>
                <circle cx="38" cy="38" r=".5" fill="#fff"/>
                <circle cx="5" cy="35" r=".5" fill="#fff"/>
                <circle cx="45" cy="10" r=".5" fill="#fff"/>
                <path stroke="#000" d="M25 25h25m-25 0V0m0 25H0m25 0v25"/>
            </svg>